<?xml version="1.0" encoding="UTF-8"?>
<svg id="Layer_2" data-name="Layer 2" xmlns="http://www.w3.org/2000/svg" viewBox="0 0 43 43">
  <defs>
    <style>
      .cls-1 {
        fill: none;
        stroke: #000;
        stroke-linecap: round;
        stroke-miterlimit: 10;
        stroke-width: 3px;
      }
    </style>
  </defs>
  <g id="Layer_1-2" data-name="Layer 1">
    <path class="cls-1" d="m26.97,41.5h-15.47c-5.52,0-10-4.48-10-10v-15.15c0-5.52,4.48-10,10-10h15.47c5.52,0,10,4.48,10,10v15.15c0,5.52-4.48,10-10,10Zm9.97-5.54c2.69-1.21,4.55-3.9,4.55-7.01V9.2c0-4.25-3.48-7.7-7.77-7.7H13.8c-3.49,0-6.44,2.27-7.42,5.41m3.06,10.03h19.58m-19.58,6.99h19.58m-19.58,6.99h11.56"/>
  </g>
</svg>