<?xml version="1.0" encoding="UTF-8"?>
<svg id="Layer_2" data-name="Layer 2" xmlns="http://www.w3.org/2000/svg" viewBox="0 0 15 16.67">
  <defs>
    <style>
      .cls-1 {
        fill: #011627;
      }
    </style>
  </defs>
  <g id="locked">
    <path class="cls-1" d="m13.62,4.27c-.18-.03-.33-.14-.39-.32-.76-2.29-3.01-3.96-5.72-3.96S2.54,1.67,1.78,3.96c-.06.17-.21.29-.39.32-.79.13-1.38.77-1.38,1.54v9.28c0,.87.76,1.57,1.69,1.57h11.62c.93,0,1.69-.7,1.69-1.57V5.82c0-.77-.6-1.41-1.38-1.54ZM7.5,1.71c1.31,0,2.47.68,3.25,1.75.24.32-.01.78-.42.78h-5.68c-.4,0-.65-.46-.42-.78.78-1.07,1.95-1.75,3.25-1.75Zm1.65,11.09c.08.39-.29.74-.79.74h-1.73c-.5,0-.87-.35-.79-.74l.51-2.36c.04-.17-.03-.34-.15-.47-.26-.27-.42-.62-.42-1.01,0-.88.77-1.59,1.71-1.59s1.71.71,1.71,1.59c0,.39-.16.74-.42,1.01-.12.13-.19.3-.15.47l.51,2.36Z"/>
  </g>
</svg>