<?xml version="1.0" encoding="UTF-8"?>
<svg id="Layer_2" data-name="Layer 2" xmlns="http://www.w3.org/2000/svg" viewBox="0 0 15 17.99">
  <defs>
    <style>
      .cls-1 {
        fill: #fff9f5;
      }
    </style>
  </defs>
  <g id="unlock">
    <path class="cls-1" d="m13.31,5.57H4.31c-.33,0-.57-.31-.49-.63.33-1.34,1.2-2.45,2.47-2.93,1.71-.64,3.62.06,4.85,1.58.28.34.74.49,1.17.33.43-.16.69-.58.68-1.02h0C11.67.46,8.57-.67,5.69.41,3.34,1.28,1.85,3.36,1.7,5.57h0c-.93,0-1.69.7-1.69,1.57v9.28c0,.87.76,1.57,1.69,1.57h11.62c.93,0,1.69-.7,1.69-1.57V7.14c0-.87-.76-1.57-1.69-1.57Zm-4.16,8.55c.08.39-.29.74-.79.74h-1.73c-.5,0-.87-.35-.79-.74l.51-2.36c.04-.17-.03-.34-.15-.47-.26-.27-.42-.62-.42-1.01,0-.88.77-1.59,1.71-1.59s1.71.71,1.71,1.59c0,.39-.16.74-.42,1.01-.12.13-.19.3-.15.47l.51,2.36Z"/>
  </g>
</svg>